<?xml version="1.0" encoding="utf-8"?>
<!-- Generator: Adobe Illustrator 17.0.0, SVG Export Plug-In . SVG Version: 6.00 Build 0)  -->
<!DOCTYPE svg PUBLIC "-//W3C//DTD SVG 1.1//EN" "http://www.w3.org/Graphics/SVG/1.1/DTD/svg11.dtd">
<svg version="1.1" id="Layer_1" xmlns="http://www.w3.org/2000/svg" xmlns:xlink="http://www.w3.org/1999/xlink" x="0px" y="0px"
	 width="500px" height="107.032px" viewBox="0 0 500 107.032" enable-background="new 0 0 500 107.032" xml:space="preserve">
<g>
	<g>
		<path fill="#010101" d="M167.569,77.108h-16.467l6.838-32.258c0.77-4.046,1.155-5.682-3.563-5.393l1.925-8.957
			c6.838-1.541,21.378-3.274,19.067,7.127c3.852-5.008,9.341-7.993,15.118-7.993c13.577,0,16.275,8.955,13.674,20.8l-2.697,12.518
			c-0.77,3.563-0.578,5.393,3.275,5.393l-1.735,8.377c-9.918,2.505-21.376,2.024-18.584-10.688l3.37-15.599
			c1.252-5.296-1.638-7.896-5.2-7.896c-3.467-0.289-8.379,2.888-9.438,8.185L167.569,77.108z"/>
		<path fill="#010101" d="M243.84,70.078c-3.563,5.104-9.629,7.801-15.118,7.801c-14.445-0.289-18.488-11.266-15.696-24.651
			c2.311-12.326,11.555-24.073,25.133-24.073c5.008,0,9.533,1.347,11.171,5.585l6.066-28.503h15.215l-11.941,56.044
			c-0.77,3.755-1.347,5.392,2.792,5.392l-1.83,8.858c-6.163,1.252-17.429,2.986-15.888-5.874L243.84,70.078z M245.477,50.337
			c0.287-4.333-1.638-7.704-5.392-7.704c-7.03,0-10.882,6.741-11.363,13.482c-0.289,4.525,1.733,7.318,6.066,7.318
			C241.337,63.433,244.996,56.597,245.477,50.337z"/>
		<path fill="#010101" d="M307.977,29.249c3.467-0.095,6.741,0.867,8.763,2.792l-6.066,13.29c-2.216-1.83-4.911-2.408-7.511-2.311
			c-5.489,0.289-10.977,3.755-12.518,10.785l-4.911,23.303h-16.081c3.852-18.778,2.985-13.577,6.836-32.355
			c0.77-3.563,0.963-5.296-2.985-5.296l1.925-8.957c6.741-1.541,19.451-2.598,18.393,6.357
			C296.807,31.754,302.584,29.249,307.977,29.249z"/>
		<path fill="#010101" d="M362.965,45.62c-2.311,9.629-11.46,13.962-20.126,14.443c-4.622,0.289-9.052-0.577-12.423-2.406
			c-0.481,6.452,4.816,7.993,11.363,7.704c5.489-0.289,12.134-1.733,15.888-3.563l-1.925,12.229
			c-5.778,3.082-11.555,3.755-17.718,4.044c-14.156,0.77-23.4-5.392-23.4-18.584c0-19.645,15.888-29.66,29.466-30.141
			C354.875,29.057,366.046,33.198,362.965,45.62z M341.684,50.242c2.599-0.097,5.585-1.927,5.585-4.911
			c0-2.697-3.178-3.467-5.585-3.37c-3.081,0.289-6.452,1.925-8.668,6.644C335.038,49.664,338.602,50.53,341.684,50.242z"/>
		<path fill="#010101" d="M396.478,71.426c-3.371,4.911-8.858,6.452-13.77,6.452c-9.341,0-18.681-7.125-15.118-23.978
			c4.141-18.295,18.681-24.555,32.547-24.265c6.933,0.097,13.577,1.638,19.451,4.236l-14.156,66.926H390.22L396.478,71.426z
			 M401.292,43.886c-1.925-0.577-3.755-0.866-5.585-0.866c-5.393,0-9.726,2.985-11.748,10.785
			c-1.252,5.103,0.481,10.591,6.26,10.591c5.393,0,8.185-6.355,8.955-10.591L401.292,43.886z"/>
		<path fill="#010101" d="M471.689,45.62c-2.311,9.629-11.46,13.962-20.126,14.443c-4.622,0.289-9.052-0.577-12.422-2.406
			c-0.481,6.452,4.816,7.993,11.363,7.704c5.489-0.289,12.134-1.733,15.888-3.563l-1.925,12.229
			c-5.778,3.082-11.555,3.755-17.718,4.044c-14.155,0.77-23.4-5.392-23.4-18.584c0-19.645,15.888-29.66,29.466-30.141
			C463.599,29.057,474.77,33.198,471.689,45.62z M450.408,50.242c2.599-0.097,5.585-1.927,5.585-4.911
			c0-2.697-3.178-3.467-5.585-3.37c-3.081,0.289-6.452,1.925-8.668,6.644C443.762,49.664,447.327,50.53,450.408,50.242z"/>
	</g>
	<path fill="#33BDB5" d="M485.612,76.112c-0.377,0-0.729-0.203-0.917-0.53l-4.099-7.099c-0.189-0.327-0.189-0.733,0-1.06
		l4.099-7.099c0.189-0.327,0.54-0.53,0.917-0.53h8.198c0.377,0,0.729,0.203,0.917,0.53l4.099,7.099c0.189,0.327,0.189,0.733,0,1.06
		l-4.099,7.099c-0.188,0.327-0.54,0.53-0.917,0.53H485.612z"/>
</g>
<g>
	<path fill="#33BDB5" d="M119.957,48.039L95.287,5.308c-1.95-3.378-5.586-5.477-9.486-5.477H36.458
		c-3.901,0-7.536,2.098-9.485,5.477L2.301,48.039c-1.95,3.378-1.95,7.576,0.001,10.954l24.671,42.733
		c1.95,3.377,5.585,5.475,9.485,5.475H85.8c3.901,0,7.535-2.098,9.485-5.476l24.672-42.732
		C121.907,55.614,121.907,51.417,119.957,48.039z M112.03,54.416L87.359,97.147c-0.315,0.547-0.927,0.9-1.559,0.9H36.458
		c-0.631,0-1.243-0.353-1.559-0.899l-24.67-42.732c-0.316-0.547-0.316-1.253-0.001-1.8L34.9,9.885c0.315-0.547,0.926-0.9,1.558-0.9
		H85.8c0.631,0,1.243,0.353,1.559,0.9l24.67,42.731C112.345,53.163,112.345,53.869,112.03,54.416z"/>
	<g>
		<path fill="#33BDB5" d="M91.023,72.901c-0.01-0.41-1.057-0.755-2.445-0.8l-3.804-0.124c-0.534-0.586-1.326-1.145-2.335-1.669
			l2.319-0.88c0.859-0.326,0.751-0.787-0.231-1.077l-4.591-1.34c-0.992-0.29-2.552-0.312-3.64-0.053l-2.854,0.679
			c-1.82-0.311-3.763-0.548-5.796-0.71l-2.77,3.987c4.095,0.437,7.045,1.595,7.077,2.956c0.041,1.744-4.723,3.174-10.615,3.186
			c-5.891,0.012-10.722-1.398-10.763-3.143c-0.032-1.349,2.813-2.51,6.829-2.972l-2.777-3.996c-2.109,0.174-4.122,0.432-5.995,0.768
			l-2.995-0.693c-1.1-0.254-2.659-0.222-3.637,0.068l-4.538,1.362c-0.979,0.294-1.054,0.756-0.181,1.078l2.513,0.928
			c-0.984,0.534-1.729,1.103-2.213,1.694l-3.982,0.143c-1.385,0.051-2.417,0.399-2.407,0.81l0.045,1.914
			c0.01,0.41,1.057,0.755,2.445,0.8l4.205,0.136c0.543,0.538,1.292,1.055,2.235,1.541l-2.63,0.996
			c-0.859,0.326-0.75,0.787,0.231,1.077l4.602,1.344c0.992,0.29,2.552,0.312,3.64,0.053l3.306-0.786
			c1.718,0.288,3.543,0.512,5.442,0.669l0.528,1.265c0.172,0.41,1.349,0.715,2.735,0.713l6.465-0.013
			c1.386-0.003,2.549-0.313,2.701-0.724l0.448-1.223c2.032-0.161,3.976-0.399,5.799-0.708l3.234,0.747
			c1.1,0.254,2.659,0.222,3.637-0.068l4.538-1.362c0.979-0.294,1.054-0.756,0.181-1.078l-2.524-0.934
			c1.027-0.534,1.826-1.103,2.354-1.698l3.852-0.139c1.385-0.051,2.417-0.399,2.407-0.81L91.023,72.901z"/>
		<path fill="#33BDB5" d="M72.61,28.945L72.61,28.945c-6.34-6.318-16.619-6.318-22.96,0l0,0c-5.713,5.693-6.356,16.412-1.508,22.854
			l12.988,18.692l12.988-18.692C78.965,45.358,78.322,34.638,72.61,28.945z M61.287,45.569c-2.96,0-5.359-2.391-5.359-5.341
			s2.399-5.341,5.359-5.341c2.96,0,5.359,2.391,5.359,5.341S64.248,45.569,61.287,45.569z"/>
	</g>
</g>
</svg>
